{
  "accessors": [
    {
      "bufferView": 2,
      "componentType": 5126,
      "count": 12894,
      "max": [
        111.21348571777344,
        175.54380798339844,
        32.7901725769043
      ],
      "min": [
        -116.32980346679688,
        -220.48593139648438,
        -48.359779357910156
      ],
      "type": "VEC3"
    },
    {
      "bufferView": 2,
      "byteOffset": 154728,
      "componentType": 5126,
      "count": 12894,
      "max": [
        0.9999847412109375,
        0.9999845027923584,
        0.9999861121177673
      ],
      "min": [
        -0.9999845623970032,
        -0.9999848008155823,
        -0.999984860420227
      ],
      "type": "VEC3"
    },
    {
      "bufferView": 1,
      "componentType": 5126,
      "count": 12894,
      "max": [
        0.9990234375,
        0.9997925758361816
      ],
      "min": [
        8.64267349243164e-06,
        0.00048828125
      ],
      "type": "VEC2"
    },
    {
      "bufferView": 1,
      "byteOffset": 103152,
      "componentType": 5126,
      "count": 12894,
      "max": [
        1.0,
        1.0
      ],
      "min": [
        -5.960464477539063e-08,
        0.0
      ],
      "type": "VEC2"
    },
    {
      "bufferView": 0,
      "componentType": 5125,
      "count": 38523,
      "type": "SCALAR"
    }
  ],
  "asset": {
    "extras": {
      "author": "CoolCat🐱 (https://sketchfab.com/coolcatwithglasses)",
      "license": "CC-BY-4.0 (http://creativecommons.org/licenses/by/4.0/)",
      "source": "https://sketchfab.com/3d-models/helicarrier-97cf6cccb2fa48c18fbef5c5600c434d",
      "title": "Helicarrier"
    },
    "generator": "Sketchfab-15.50.0",
    "version": "2.0"
  },
  "bufferViews": [
    {
      "buffer": 0,
      "byteLength": 154092,
      "name": "floatBufferViews",
      "target": 34963
    },
    {
      "buffer": 0,
      "byteLength": 206304,
      "byteOffset": 154092,
      "byteStride": 8,
      "name": "floatBufferViews",
      "target": 34962
    },
    {
      "buffer": 0,
      "byteLength": 309456,
      "byteOffset": 360396,
      "byteStride": 12,
      "name": "floatBufferViews",
      "target": 34962
    }
  ],
  "buffers": [
    {
      "byteLength": 669852,
      "uri": "scene.bin"
    }
  ],
  "extensionsRequired": [
    "KHR_materials_pbrSpecularGlossiness"
  ],
  "extensionsUsed": [
    "KHR_materials_pbrSpecularGlossiness"
  ],
  "images": [
    {
      "uri": "textures/M_Junior_Helicarrier_Crashing.001_diffuse.png"
    }
  ],
  "materials": [
    {
      "doubleSided": true,
      "extensions": {
        "KHR_materials_pbrSpecularGlossiness": {
          "diffuseFactor": [
            1.0,
            1.0,
            1.0,
            1.0
          ],
          "diffuseTexture": {
            "index": 0
          },
          "glossinessFactor": 0.1788854381999832,
          "specularFactor": [
            0.0,
            0.0,
            0.0
          ]
        }
      },
      "name": "M_Junior_Helicarrier_Crashing.001"
    }
  ],
  "meshes": [
    {
      "name": "SM_Junior_Helicarrier_Crashing_LOD0.mo_M_Junior_Helicarrier_Crashing.001_0",
      "primitives": [
        {
          "attributes": {
            "NORMAL": 1,
            "POSITION": 0,
            "TEXCOORD_0": 2,
            "TEXCOORD_1": 3
          },
          "indices": 4,
          "material": 0,
          "mode": 4
        }
      ]
    }
  ],
  "nodes": [
    {
      "children": [
        1
      ],
      "matrix": [
        1.0,
        0.0,
        0.0,
        0.0,
        0.0,
        2.220446049250313e-16,
        -1.0,
        0.0,
        0.0,
        1.0,
        2.220446049250313e-16,
        0.0,
        0.0,
        0.0,
        0.0,
        1.0
      ],
      "name": "Sketchfab_model"
    },
    {
      "children": [
        2
      ],
      "matrix": [
        0.009999999776482582,
        0.0,
        0.0,
        0.0,
        0.0,
        0.0,
        0.009999999776482582,
        0.0,
        0.0,
        -0.009999999776482582,
        0.0,
        0.0,
        0.0,
        0.0,
        0.0,
        1.0
      ],
      "name": "6fc4622ba2204499893c939ee8cd2273.fbx"
    },
    {
      "children": [
        3
      ],
      "name": "RootNode"
    },
    {
      "children": [
        4
      ],
      "matrix": [
        100.0,
        0.0,
        0.0,
        0.0,
        0.0,
        -1.629206793918314e-05,
        -99.99999999999868,
        0.0,
        0.0,
        99.99999999999868,
        -1.629206793918314e-05,
        0.0,
        386.5546875,
        5321.20556640625,
        0.0,
        1.0
      ],
      "name": "SM_Junior_Helicarrier_Crashing_LOD0.mo"
    },
    {
      "mesh": 0,
      "name": "SM_Junior_Helicarrier_Crashing_LOD0.mo_M_Junior_Helicarrier_Crashing.001_0"
    }
  ],
  "samplers": [
    {
      "magFilter": 9729,
      "minFilter": 9987,
      "wrapS": 10497,
      "wrapT": 10497
    }
  ],
  "scene": 0,
  "scenes": [
    {
      "name": "Sketchfab_Scene",
      "nodes": [
        0
      ]
    }
  ],
  "textures": [
    {
      "sampler": 0,
      "source": 0
    }
  ]
}
